# xmcd
#
# Track frame offsets: 
#        150
#        33121
#        65521
#        100415
#        129635
#        159892
#        190874
#        213023
#
# Disc length: 3372 seconds
#
# Revision: 4
# Processed by: cddbd v1.5.2PL0 Copyright (c) Steve Scherf et al.
# Submitted via: ExactAudioCopy v0.95b4
#
DISCID=620d2a08
DTITLE=Deva Premal - Embrace
DYEAR=2002
DGENRE=New Age
TTITLE0=Om Tare Tuttare
TTITLE1=Om Namo Bhagavate
TTITLE2=Hari Om Shiva Om
TTITLE3=Om Ram Ramaya
TTITLE4=Shree Ram Jai Ram
TTITLE5=Shante Prashante
TTITLE6=Rang De
TTITLE7=Teyata
EXTD=YEAR: 2002
EXTT0=
EXTT1=
EXTT2=
EXTT3=
EXTT4=
EXTT5=
EXTT6=
EXTT7=
PLAYORDER=
